# xmcd CD database file
#
# Track frame offsets:
#	150
#	16480
#	32232
#	47254
#	62544
#	75219
#	89035
#	102389
#	119365
#	130770
#	144645
#	160142
#	176430
#	195622
#	217022
#	243673
#
# Disc length: 3743 seconds
#
# Revision: 1
# Processed by: cddbd v1.5.1PL0 Copyright (c) Steve Scherf et al.
# Submitted via: CDex 1.51
#
DISCID=d80e9d10
DTITLE=Teresa Cristina - A vida me fez assim
DYEAR=2004
DGENRE=Samba
TTITLE0=Acalanto
TTITLE1=Viver
TTITLE2=candeeiro
TTITLE3=O passar dos anos
TTITLE4=Ja era (Palavra)
TTITLE5=Peito sangrando
TTITLE6=A borboleta e o passarinho
TTITLE7=Pedro e Tereza
TTITLE8=Um calo de estimacao
TTITLE9=Sorri
TTITLE10=Quantas lagrimas
TTITLE11=Lavoura
TTITLE12=Ana agua do rio/A vida me fez assim
TTITLE13=Embala eu/Samba de roda
TTITLE14=Portela
TTITLE15=DATA
EXTD=YEAR: 2004
EXTT0=
EXTT1=
EXTT2=
EXTT3=
EXTT4=
EXTT5=
EXTT6=
EXTT7=
EXTT8=
EXTT9=
EXTT10=
EXTT11=
EXTT12=
EXTT13=
EXTT14=
EXTT15=
PLAYORDER=
